<svg xmlns="http://www.w3.org/2000/svg" viewBox="0 0 738.74 182.36"><defs><style>.cls-1{fill:#64a70b;}.cls-2{fill:#545859;}</style></defs><g id="Capa_2" data-name="Capa 2"><g id="Capa_1-2" data-name="Capa 1"><path class="cls-1" d="M115.63,75A34.09,34.09,0,0,0,90.25,85.71a35.87,35.87,0,0,0-10.42,24.64v72H95.71l-.09-27.49.11-44.52a22.81,22.81,0,0,1,5.48-14.41,18.31,18.31,0,0,1,14.42-6.25q9,0,14.56,6.25c3.61,4.1,5.44,9.57,5.44,16.44s-1.83,12.34-5.44,16.45S121.7,135,115.63,135a22.85,22.85,0,0,1-4.13-.35v14.73c1.26.12,2.54.18,3.85.18a34.63,34.63,0,0,0,25.72-10.64q10.43-10.72,10.42-26.59T141.14,85.78A34.2,34.2,0,0,0,115.63,75"/><path class="cls-1" d="M195.8,75a34.11,34.11,0,0,0-25.38,10.73,36,36,0,0,0-10.41,26q0,16.23,10.2,27a33.31,33.31,0,0,0,25.32,10.86,34.64,34.64,0,0,0,25.72-10.64,36.74,36.74,0,0,0,6.2-8.48l-14.77-4.84a20,20,0,0,1-2.32,3.25c-3.64,4.1-8.48,6.15-14.56,6.15s-10.87-2.08-14.55-6.23-5.38-9.67-5.38-16.74q0-9.86,5.52-16.07a18.3,18.3,0,0,1,14.41-6.25q9,0,14.56,6.25a20.85,20.85,0,0,1,4.5,8.6H191v13.93h40.23a45.74,45.74,0,0,0,.41-6.16q0-15.72-10.34-26.53A34.22,34.22,0,0,0,195.8,75"/><path class="cls-1" d="M301.5,85.78a35.47,35.47,0,0,0-50.9-.07c-7,7.15-10.41,15.82-10.41,26.34v36.39H256V112c0-6.58,1.84-11.93,5.51-16.09A18.37,18.37,0,0,1,276,89.69q9,0,14.56,6.24c3.56,4,5.41,9.42,5.46,16.12v36.39h15.84l0-36.13q0-15.74-10.35-26.53"/><path class="cls-1" d="M35.62,74.82a33.32,33.32,0,0,0-6.59.65V91.3a20,20,0,0,1,6.59-1.11c11.59,0,21,9.88,21,22.06s-9.4,22-21,22c-11.14,0-20.26-9.12-21-20.63q0-.7,0-1.41c0-.43,0-.83,0-1.22V82A38,38,0,0,0,0,112.25c0,20.66,15.94,37.41,35.62,37.41s35.63-16.75,35.63-37.41-16-37.43-35.63-37.43"/><path class="cls-1" d="M701.6,0a37.26,37.26,0,0,0-12,2l0,10.68.06,25.45A12.73,12.73,0,0,0,693,46.37a11.33,11.33,0,0,0,8.66,3.57,11.49,11.49,0,0,0,8.73-3.57A13.31,13.31,0,0,0,713.65,37a13.34,13.34,0,0,0-3.28-9.41,11.33,11.33,0,0,0-8.73-3.52,14.06,14.06,0,0,0-2.48.21V15.84c.75-.07,1.52-.11,2.31-.11a21.39,21.39,0,0,1,15.44,6.08A20.49,20.49,0,0,1,723.16,37,20.51,20.51,0,0,1,717,52.16a22.07,22.07,0,0,1-30.57,0,20,20,0,0,1-6.26-14.07l0-.79,0-30.48A37.11,37.11,0,1,0,701.6,0"/><path class="cls-2" d="M355.93,75a37.12,37.12,0,0,0-3.84.19V89.88a21.82,21.82,0,0,1,4.11-.37q9.1,0,14.56,6.16t5.45,16.45q0,10.29-5.45,16.45c-3.68,4.16-8.52,6.23-14.56,6.23a18.29,18.29,0,0,1-14.4-6.23,22.73,22.73,0,0,1-5.49-14.42l-.11-44.53.08-27.48H320.41v72a35.74,35.74,0,0,0,10.42,24.63,35.47,35.47,0,0,0,50.9-.07q10.35-10.8,10.35-26.51,0-15.87-10.41-26.6A34.77,34.77,0,0,0,355.93,75"/><path class="cls-2" d="M499.17,85.71a35.47,35.47,0,0,0-50.9.07q-10.35,10.8-10.35,26.53t10.41,26.59a34.67,34.67,0,0,0,25.73,10.64c1.32,0,2.59-.06,3.85-.18V134.63a22.93,22.93,0,0,1-4.13.35q-9.11,0-14.54-6.15t-5.46-16.45q0-10.3,5.46-16.44t14.54-6.25a18.31,18.31,0,0,1,14.42,6.25,22.7,22.7,0,0,1,5.48,14.41l0,38.09h15.89V110.35a35.91,35.91,0,0,0-10.42-24.64"/><path class="cls-2" d="M410.6,85.71c-6.94,7.15-10.4,15.82-10.39,26.33v36.4h15.84V112q0-9.86,5.52-16.07c3.68-4.17,8.49-6.25,14.54-6.25L436,75A34.12,34.12,0,0,0,410.6,85.71"/><path class="cls-2" d="M567.54,76v36.41c-.06,6.71-1.9,12.07-5.47,16.11s-8.52,6.23-14.56,6.23H537.27l0-53.89V76H521.41v72.42l26.1,0c10,0,18.53-2.58,25.53-9.78s10.34-16,10.34-26.52V76Z"/><path class="cls-2" d="M628.19,74.82a33.57,33.57,0,0,0-6.6.65V91.3a20.59,20.59,0,0,1,5.61-1.09c11.32-.55,21.28,8.83,21.95,20.71.71,12.78-9,23.37-21,23.37-11.14,0-20.27-9.12-21-20.63q0-.7,0-1.41c0-.43,0-.83,0-1.22V82a38.2,38.2,0,0,0-14.41,34.76c1.89,17,15,30.76,31.22,32.67,21.54,2.56,39.78-15.08,39.78-37.16,0-20.68-16-37.43-35.63-37.43"/></g></g></svg>