<svg xmlns="http://www.w3.org/2000/svg" viewBox="0 0 762.71 220.62"><defs><style>.cls-1{fill:#64a70b;}.cls-2{fill:#545859;}.cls-3{fill:#545859;}.cls-4{fill:none;stroke:#64a70b;stroke-miterlimit:10;stroke-width:5px;}</style></defs><g id="Capa_2" data-name="Capa 2"><g id="Capa_1-2" data-name="Capa 1"><path class="cls-1" d="M128.29,104.46a34.13,34.13,0,0,0-25.39,10.73,35.91,35.91,0,0,0-10.42,24.64v72h15.89l-.09-27.49.11-44.52a22.75,22.75,0,0,1,5.48-14.42,18.33,18.33,0,0,1,14.42-6.24q9,0,14.55,6.24c3.62,4.11,5.45,9.58,5.45,16.45s-1.83,12.34-5.45,16.44-8.48,6.16-14.55,6.16a22.85,22.85,0,0,1-4.13-.35v14.73c1.26.12,2.54.18,3.85.18a34.67,34.67,0,0,0,25.72-10.64q10.43-10.73,10.42-26.59T153.8,115.26a34.2,34.2,0,0,0-25.51-10.8"/><path class="cls-1" d="M208.46,104.46a34.09,34.09,0,0,0-25.38,10.73,36,36,0,0,0-10.41,26q0,16.23,10.2,27A33.29,33.29,0,0,0,208.19,179a34.66,34.66,0,0,0,25.71-10.64,36.38,36.38,0,0,0,6.2-8.48l-14.76-4.84A20.11,20.11,0,0,1,223,158.3q-5.46,6.16-14.56,6.16t-14.56-6.23q-5.39-6.15-5.37-16.74,0-9.86,5.51-16.08a18.36,18.36,0,0,1,14.42-6.24c6,0,10.87,2.08,14.56,6.24a21,21,0,0,1,4.5,8.61H203.68v13.92H243.9a44,44,0,0,0,.42-6.15q0-15.73-10.35-26.53a34.2,34.2,0,0,0-25.51-10.8"/><path class="cls-1" d="M314.15,115.26a35.45,35.45,0,0,0-50.89-.07c-7,7.15-10.41,15.82-10.41,26.34v36.39H268.7V141.5c0-6.59,1.84-11.94,5.51-16.09a18.37,18.37,0,0,1,14.42-6.24c6,0,10.87,2.08,14.56,6.24s5.4,9.42,5.46,16.12v36.39h15.84V141.78q0-15.72-10.35-26.52"/><path class="cls-1" d="M48.27,104.3a33.3,33.3,0,0,0-6.58.65v15.83a20,20,0,0,1,6.58-1.12c11.6,0,21,9.89,21,22.07s-9.4,22-21,22c-11.14,0-20.25-9.12-21-20.63,0-.47,0-.95,0-1.41s0-.83,0-1.23v-29a38,38,0,0,0-14.66,30.27c0,20.66,15.94,37.41,35.61,37.41S83.9,162.39,83.9,141.73,68,104.3,48.27,104.3"/><path class="cls-1" d="M714.26,29.48a37.21,37.21,0,0,0-12,2l0,10.69.06,25.44a12.8,12.8,0,0,0,3.28,8.25,11.36,11.36,0,0,0,8.66,3.57A11.5,11.5,0,0,0,723,75.85a13.32,13.32,0,0,0,3.27-9.39A13.34,13.34,0,0,0,723,57.05a11.36,11.36,0,0,0-8.74-3.52,15.19,15.19,0,0,0-2.48.2V45.32c.75-.07,1.53-.11,2.31-.11a21.4,21.4,0,0,1,15.45,6.08,20.49,20.49,0,0,1,6.25,15.2,20.55,20.55,0,0,1-6.2,15.15,22.08,22.08,0,0,1-30.58,0,20,20,0,0,1-6.25-14.08V36.33a37.12,37.12,0,1,0,21.47-6.85"/><path class="cls-2" d="M368.59,104.43a36.84,36.84,0,0,0-3.84.19v14.73a22.69,22.69,0,0,1,4.11-.36q9.11,0,14.56,6.16t5.45,16.45q0,10.29-5.45,16.45c-3.69,4.16-8.52,6.23-14.56,6.23a18.33,18.33,0,0,1-14.41-6.23A22.78,22.78,0,0,1,349,143.62l-.11-44.52.08-27.48H333.07v72a35.76,35.76,0,0,0,10.42,24.64,35.45,35.45,0,0,0,50.89-.07q10.35-10.8,10.35-26.51,0-15.87-10.4-26.6a34.78,34.78,0,0,0-25.74-10.65"/><path class="cls-2" d="M511.83,115.19a35.47,35.47,0,0,0-50.9.07q-10.35,10.8-10.35,26.53T461,168.38A34.7,34.7,0,0,0,486.72,179c1.32,0,2.59-.06,3.85-.18V164.11a22.93,22.93,0,0,1-4.13.35q-9.1,0-14.54-6.16t-5.46-16.44c0-6.87,1.81-12.34,5.46-16.45s8.52-6.24,14.54-6.24a18.34,18.34,0,0,1,14.42,6.24,22.75,22.75,0,0,1,5.48,14.42l0,38.09h15.89l0-36.72,0-1.37a35.91,35.91,0,0,0-10.42-24.64"/><path class="cls-2" d="M423.26,115.19c-6.94,7.15-10.41,15.82-10.39,26.33v36.4h15.84V141.49q0-9.86,5.52-16.08c3.68-4.16,8.48-6.24,14.53-6.24l-.13-14.71a34.12,34.12,0,0,0-25.37,10.73"/><path class="cls-2" d="M580.19,105.48v36.4c-.05,6.72-1.9,12.08-5.46,16.12s-8.52,6.23-14.56,6.23H549.93l0-53.89v-4.85H534.06V177.9l26.11,0c10,0,18.53-2.58,25.53-9.78s10.33-16,10.33-26.52V105.48Z"/><path class="cls-2" d="M640.85,104.3a33.57,33.57,0,0,0-6.6.65v15.83a20.52,20.52,0,0,1,5.61-1.09c11.31-.55,21.28,8.83,21.94,20.7.71,12.79-8.95,23.38-20.95,23.38-11.14,0-20.27-9.12-21-20.63,0-.47,0-.95,0-1.41s0-.83,0-1.23v-29a38.2,38.2,0,0,0-14.41,34.76c1.88,17,15,30.76,31.22,32.67,21.54,2.56,39.78-15.08,39.78-37.16,0-20.68-16-37.43-35.63-37.43"/><path class="cls-2" d="M687.74,172.76h.86c1,0,1.78-.36,1.78-1.19s-.51-1.24-1.64-1.24a3.7,3.7,0,0,0-1,.1Zm0,4.54h-1.79v-8.11a21.27,21.27,0,0,1,3-.24,4,4,0,0,1,2.63.64,2.08,2.08,0,0,1-.79,3.66v.1c.74.24,1.12.89,1.35,2a8,8,0,0,0,.57,2h-1.89a6.89,6.89,0,0,1-.6-2c-.14-.86-.61-1.25-1.6-1.25h-.85Zm1.18-10.68a6.5,6.5,0,0,0,.09,12.95c3.34.05,5.88-2.86,5.88-6.42s-2.54-6.53-5.93-6.53ZM689,165a8.14,8.14,0,0,1-.05,16.27,8.14,8.14,0,0,1,0-16.27Z"/><path class="cls-3" d="M32.16,64.16a11.46,11.46,0,0,1-6.23-1.69,13.26,13.26,0,0,1-4.32-4.4V75.61H15.4V34.08h5.48v5.31a12.64,12.64,0,0,1,4.4-4.23,11.77,11.77,0,0,1,6.09-1.58,12.39,12.39,0,0,1,5.53,1.24,14.11,14.11,0,0,1,4.4,3.33A15.48,15.48,0,0,1,44.21,43a16.43,16.43,0,0,1,1,5.81,18.34,18.34,0,0,1-1,6,14.79,14.79,0,0,1-2.71,4.85A13.05,13.05,0,0,1,37.44,63,11.65,11.65,0,0,1,32.16,64.16Zm-2-5.31A7.67,7.67,0,0,0,33.74,58a8.69,8.69,0,0,0,2.77-2.26,11,11,0,0,0,1.77-3.22,10.71,10.71,0,0,0,.65-3.72,10.51,10.51,0,0,0-.7-3.84,10.11,10.11,0,0,0-1.95-3.16,9.43,9.43,0,0,0-2.93-2.14,8.43,8.43,0,0,0-3.62-.79,7.63,7.63,0,0,0-2.48.45,10.65,10.65,0,0,0-2.45,1.24,9.55,9.55,0,0,0-2,1.84,6.29,6.29,0,0,0-1.18,2.28v7.73A11.13,11.13,0,0,0,23.08,55a10,10,0,0,0,2,2,10.14,10.14,0,0,0,2.42,1.36A7.21,7.21,0,0,0,30.19,58.85Z"/><path class="cls-3" d="M64.1,64.16a15.45,15.45,0,0,1-6.29-1.24A14.46,14.46,0,0,1,50,54.71,16.47,16.47,0,0,1,50,43a14.37,14.37,0,0,1,3.08-4.88,14.86,14.86,0,0,1,4.79-3.33,16.3,16.3,0,0,1,12.47,0,14.91,14.91,0,0,1,4.8,3.33A14.34,14.34,0,0,1,78.2,43a16.33,16.33,0,0,1,0,11.68,14.44,14.44,0,0,1-3.07,4.88,15.06,15.06,0,0,1-4.8,3.33A15.3,15.3,0,0,1,64.1,64.16ZM55.3,48.92A11.18,11.18,0,0,0,56,52.87,9.67,9.67,0,0,0,57.84,56a8.54,8.54,0,0,0,2.79,2.08,8.3,8.3,0,0,0,6.94,0A8.45,8.45,0,0,0,70.36,56a10.26,10.26,0,0,0,1.86-3.16,11.73,11.73,0,0,0,0-7.87,10,10,0,0,0-1.86-3.19,8.48,8.48,0,0,0-2.79-2.12,8,8,0,0,0-3.47-.76,7.63,7.63,0,0,0-3.42.79,9,9,0,0,0-2.79,2.14A10.65,10.65,0,0,0,56,45,10.82,10.82,0,0,0,55.3,48.92Z"/><path class="cls-3" d="M120.58,34.08h5.93L114,63.59H109l-5.53-13.71L98,63.59H92.82L80.41,34.08h5.86l9.54,23.53,4.29-10.94L95,34.14H100l3.39,9.25,3.38-9.25h5.08l-5.08,12.53,4.29,10.94Z"/><path class="cls-3" d="M144.06,64.16A15.86,15.86,0,0,1,137.79,63,14.43,14.43,0,0,1,133,59.64a14.83,14.83,0,0,1-3.11-4.85,15.79,15.79,0,0,1-1.1-5.87,16,16,0,0,1,1.1-5.89A15.09,15.09,0,0,1,133,38.12a14.34,14.34,0,0,1,4.82-3.33,15.83,15.83,0,0,1,6.32-1.21,15.18,15.18,0,0,1,6.24,1.24,14.9,14.9,0,0,1,4.77,3.3,14.1,14.1,0,0,1,3,4.79,15.9,15.9,0,0,1,1.05,5.73,12.59,12.59,0,0,1-.06,1.27c0,.4-.07.73-.11,1H135.37a9.93,9.93,0,0,0,.93,3.55,9.09,9.09,0,0,0,2,2.74,8.68,8.68,0,0,0,6,2.4,9.76,9.76,0,0,0,2.46-.31,8.91,8.91,0,0,0,2.22-.9,8.2,8.2,0,0,0,1.81-1.44A6.69,6.69,0,0,0,152,55.07l5.31,1.53a12.31,12.31,0,0,1-5,5.44A15.68,15.68,0,0,1,144.06,64.16Zm9-17.55a10.24,10.24,0,0,0-.93-3.44,8.9,8.9,0,0,0-1.95-2.68,8.46,8.46,0,0,0-2.77-1.72,8.86,8.86,0,0,0-3.32-.62,8.74,8.74,0,0,0-3.31.62A8.6,8.6,0,0,0,138,40.49a8.5,8.5,0,0,0-1.92,2.68,10.21,10.21,0,0,0-.9,3.44Z"/><path class="cls-3" d="M180.73,39.44a13.65,13.65,0,0,0-6.37,1.67,9,9,0,0,0-4,4.43V63.59h-6.21V34.08h5.76v6.61a14.85,14.85,0,0,1,4-5,8.35,8.35,0,0,1,5.22-1.92h.93a3.13,3.13,0,0,1,.65.06Z"/><path class="cls-3" d="M198.73,64.16A15.85,15.85,0,0,1,192.47,63a14.58,14.58,0,0,1-4.83-3.31,14.8,14.8,0,0,1-3.1-4.85,15.79,15.79,0,0,1-1.1-5.87,16,16,0,0,1,1.1-5.89,15.07,15.07,0,0,1,3.1-4.91,14.48,14.48,0,0,1,4.83-3.33,15.83,15.83,0,0,1,6.32-1.21A15.13,15.13,0,0,1,205,34.82a14.79,14.79,0,0,1,4.77,3.3,14.12,14.12,0,0,1,3,4.79,15.89,15.89,0,0,1,1,5.73c0,.45,0,.88,0,1.27s-.08.73-.11,1H190a10.37,10.37,0,0,0,.93,3.55,9.3,9.3,0,0,0,2,2.74,8.63,8.63,0,0,0,6,2.4,9.74,9.74,0,0,0,2.45-.31,9,9,0,0,0,2.23-.9,8.2,8.2,0,0,0,1.81-1.44,6.92,6.92,0,0,0,1.24-1.87L212,56.6A12.25,12.25,0,0,1,206.94,62,15.66,15.66,0,0,1,198.73,64.16Zm9-17.55a9.79,9.79,0,0,0-.93-3.44,8.71,8.71,0,0,0-1.94-2.68,8.57,8.57,0,0,0-2.77-1.72,8.88,8.88,0,0,0-3.33-.62,8.85,8.85,0,0,0-6,2.34,8.32,8.32,0,0,0-1.91,2.68,10.46,10.46,0,0,0-.91,3.44Z"/><path class="cls-3" d="M231.06,64.16A13.08,13.08,0,0,1,225.45,63,13.66,13.66,0,0,1,221,59.64a15.37,15.37,0,0,1-2.91-4.85,16.75,16.75,0,0,1-1-5.92,17.75,17.75,0,0,1,1-6,15.31,15.31,0,0,1,2.73-4.85A13.1,13.1,0,0,1,225,34.79a11.82,11.82,0,0,1,5.33-1.21,11.37,11.37,0,0,1,6.15,1.69,12,12,0,0,1,4.23,4.4V22.4h6.21V56.26a1.76,1.76,0,0,0,1.81,2v5.3a16.51,16.51,0,0,1-1.7.23q-.74.06-1.35.06-3.5-.35-4-3.22l-.11-2.43a11.6,11.6,0,0,1-4.52,4.41A12.57,12.57,0,0,1,231.06,64.16Zm1.58-5.31a7.64,7.64,0,0,0,2.49-.45,9.72,9.72,0,0,0,2.42-1.24,9.45,9.45,0,0,0,2-1.86A6.42,6.42,0,0,0,240.71,53V45.26a9.41,9.41,0,0,0-1.41-2.51,11.05,11.05,0,0,0-2.06-2,9.67,9.67,0,0,0-2.45-1.35,7.67,7.67,0,0,0-6.18.37A8.86,8.86,0,0,0,225.84,42a10.23,10.23,0,0,0-1.77,3.25,11.43,11.43,0,0,0-.62,3.75,10.51,10.51,0,0,0,.7,3.84A9.91,9.91,0,0,0,226.07,56,9.25,9.25,0,0,0,229,58.07,8.62,8.62,0,0,0,232.64,58.85Z"/><path class="cls-3" d="M284.73,64.16a12,12,0,0,1-6.18-1.61,11.78,11.78,0,0,1-4.32-4.32v5.36h-5.47V22.4H275V39.67a13.64,13.64,0,0,1,4.38-4.46,12.25,12.25,0,0,1,11.54-.36A13,13,0,0,1,295,38.23a15.6,15.6,0,0,1,2.66,4.91,18.36,18.36,0,0,1,.93,5.84,16.18,16.18,0,0,1-1.08,5.93,15.34,15.34,0,0,1-2.93,4.82A13.7,13.7,0,0,1,290.2,63,12.78,12.78,0,0,1,284.73,64.16Zm-1.64-5.31a8.52,8.52,0,0,0,3.72-.81,9.27,9.27,0,0,0,2.91-2.18,9.81,9.81,0,0,0,1.89-3.13,10.44,10.44,0,0,0,.68-3.75,11.38,11.38,0,0,0-.65-3.81A10.66,10.66,0,0,0,289.83,42a9,9,0,0,0-2.76-2.22,7.4,7.4,0,0,0-3.53-.85,7.3,7.3,0,0,0-2.74.51,9.78,9.78,0,0,0-2.37,1.38,11.16,11.16,0,0,0-2,2,14.7,14.7,0,0,0-1.5,2.46V53a6,6,0,0,0,1.19,2.34,9.26,9.26,0,0,0,2,1.84,9.38,9.38,0,0,0,2.46,1.21A8,8,0,0,0,283.09,58.85Z"/><path class="cls-3" d="M304.08,70.59a13,13,0,0,0,1.47.23c.45,0,.86.05,1.24.05a4.31,4.31,0,0,0,1.3-.17,2.3,2.3,0,0,0,1.1-.87,11.51,11.51,0,0,0,1.18-2.17c.43-1,.95-2.34,1.55-4.07L299.85,34.08h6.37l9.14,24,8.13-24h5.87L315.87,70.42a8.84,8.84,0,0,1-3.38,4.52,9.5,9.5,0,0,1-5.25,1.46,11.12,11.12,0,0,1-3.16-.45Z"/><rect class="cls-4" x="2.5" y="2.5" width="757.71" height="215.62" rx="12"/></g></g></svg>